<svg width="988" height="257" viewBox="0 0 988 257" fill="none" xmlns="http://www.w3.org/2000/svg">
<path d="M38.8483 253.643H42.0789V250.412V179.752C44.1536 183.746 46.6843 187.444 49.7659 190.684C57.3588 198.666 68.0417 203.595 82.6398 203.595C100.665 203.595 115.555 196.265 125.857 182.972C136.09 169.767 141.605 150.939 141.605 128.137C141.605 105.335 136.09 86.5132 125.935 73.3122C115.713 60.0239 100.967 52.6794 83.2085 52.6794C68.6144 52.6794 57.799 57.6051 50.0675 65.6085C46.8619 68.9268 44.2289 72.7295 42.0789 76.8487V59.0379V55.8073H38.8483H7H3.76942V59.0379V250.412V253.643H7H38.8483ZM201.022 200.752H204.253V197.521V59.0379V55.8073H201.022H169.174H165.944V59.0379V197.521V200.752H169.174H201.022ZM260.196 200.752H261.977L262.927 199.246L283.401 166.829L283.426 166.79L283.45 166.75L293.478 149.813L303.773 167.045L303.797 167.085L303.822 167.125L324.296 199.257L325.248 200.752H327.021H363.419H369.455L366.107 195.729L320.697 127.615L367.486 60.8927L371.052 55.8073H364.841H328.442H326.67L325.718 57.3019L305.244 89.4346L305.203 89.4983L305.166 89.5638L295.732 106.018L285.743 88.7031L285.708 88.6423L285.67 88.5831L265.765 57.3035L264.813 55.8073H263.04H226.642H220.605L223.954 60.8299L268.791 128.086L221.157 195.66L217.568 200.752H223.798H260.196ZM501.007 172.288L502.829 169.531L500.032 167.772L479.799 155.048L476.627 153.053L475.121 156.484C472.867 161.618 469.613 165.092 464.215 167.394C458.615 169.782 450.553 170.973 438.596 170.973C428.322 170.973 420.092 167.853 414.233 162.12C408.946 156.948 405.316 149.382 404.05 139.33H499.45H502.098L502.617 136.733C503.238 133.629 503.818 127.436 503.818 122.166C503.818 102.336 497.862 84.9918 486.239 72.5765C474.587 60.1301 457.543 52.9637 436.037 52.9637C415.726 52.9637 398.347 60.4714 386.066 73.8041C373.804 87.1162 366.835 106 366.835 128.422C366.835 150.708 373.809 169.538 386.38 182.822C398.968 196.124 416.916 203.595 438.312 203.595C470.175 203.595 489.926 189.06 501.007 172.288ZM565.359 200.752H568.589V197.521V7V3.76942H565.359H533.511H530.28V7V197.521V200.752H533.511H565.359ZM670.056 93.064C672.972 95.9797 674.651 100.153 675.38 105.622L631.275 124.292C619.856 128.777 610.348 134.176 603.673 141.195C596.899 148.318 593.15 156.999 593.15 167.663C593.15 178.389 596.851 187.483 603.876 193.869C610.867 200.225 620.813 203.595 632.779 203.595C648.178 203.595 659.596 197.822 667.685 189.542C671.329 185.811 674.273 181.599 676.61 177.221C677.643 184.564 680.522 190.14 684.957 194.045C690.528 198.952 698.031 200.752 705.859 200.752H725.48H728.711V197.521V170.223V166.992H725.48H716.665C714.407 166.992 713.685 166.531 713.398 166.227C713.057 165.866 712.502 164.859 712.502 161.976V109.938C712.502 92.2766 707.488 77.9254 697.591 67.9902C687.693 58.0528 673.338 52.9637 655.528 52.9637C623.63 52.9637 601.108 69.5138 589.791 84.9991L588.299 87.0408L589.923 88.9794L608.975 111.728L612.009 115.351L614.284 111.209C621.785 97.5448 635.302 87.5765 652.4 87.5765C661.423 87.5765 666.786 89.7936 670.056 93.064ZM843.201 184.262L844.112 182.917L843.575 181.383L833.623 152.947L831.1 145.738L827.684 152.569C823.895 160.147 816.776 167.561 807.825 167.561C803.468 167.561 800.355 166.688 798.287 164.719C796.241 162.772 794.562 159.121 794.562 152.024V87.0078H833.702H836.932V83.7772V59.0379V55.8073H833.702H794.562V22.0711V16.1981L789.602 19.3426L757.754 39.5321L756.253 40.4836V42.2607V55.8073H737.872H734.642V59.0379V83.7772V87.0078H737.872H756.253V159.701C756.253 172.593 760.236 183.705 767.982 191.607C775.739 199.521 786.941 203.88 800.716 203.88C821.921 203.88 836.597 194.01 843.201 184.262ZM981.421 172.288L983.241 169.533L980.447 167.774L960.245 155.049L957.072 153.051L955.565 156.484C953.312 161.616 950.052 165.09 944.645 167.393C939.037 169.782 930.966 170.973 919.01 170.973C908.735 170.973 900.505 167.853 894.646 162.12C889.359 156.948 885.73 149.382 884.463 139.33H979.863H982.511L983.03 136.733C983.651 133.629 984.231 127.436 984.231 122.166C984.231 102.336 978.275 84.9918 966.652 72.5765C955 60.1301 937.956 52.9637 916.45 52.9637C896.14 52.9637 878.761 60.4714 866.479 73.8041C854.217 87.1162 847.248 106 847.248 128.422C847.248 150.708 854.222 169.538 866.793 182.822C879.381 196.124 897.329 203.595 918.725 203.595C950.588 203.595 970.339 189.06 981.421 172.288ZM42.0789 136.668V119.607C42.0789 108.599 44.3612 99.9694 48.8962 94.1521C53.3207 88.4766 60.2522 85.0173 70.6967 85.0173C79.7727 85.0173 87.5598 88.4186 93.1448 95.2729C98.7883 102.199 102.442 112.978 102.442 128.137C102.442 143.297 98.7883 154.076 93.1448 161.002C87.5598 167.856 79.7727 171.258 70.6967 171.258C60.2522 171.258 53.3207 167.798 48.8962 162.123C44.3612 156.305 42.0789 147.676 42.0789 136.668ZM436.037 85.0173C445.936 85.0173 453.459 87.8125 458.768 92.8409C463.471 97.295 466.728 103.776 468.173 112.395H404.508C406.078 103.562 409.494 97.0572 414.216 92.6414C419.539 87.6623 426.865 85.0173 436.037 85.0173ZM630.322 162.829C630.322 160.155 631.175 157.968 633.315 155.771C635.589 153.438 639.337 151.08 645.195 148.429C645.197 148.428 645.199 148.428 645.2 148.427L676.183 134.546V144.346C676.183 152.862 672.983 159.781 667.534 164.604C662.048 169.459 654.045 172.395 644.153 172.395C638.697 172.395 635.259 171.253 633.245 169.672C631.362 168.194 630.322 166.018 630.322 162.829ZM916.45 85.0173C926.349 85.0173 933.872 87.8125 939.181 92.8409C943.885 97.295 947.141 103.776 948.586 112.395H884.921C886.491 103.562 889.907 97.0572 894.629 92.6414C899.952 87.6623 907.278 85.0173 916.45 85.0173Z" fill="white" stroke="white" style="fill:white;fill-opacity:1;stroke:white;stroke-opacity:1;" stroke-width="6.46116"/>
<path d="M164.691 20.9023V53.3218H132.84V20.9023H164.691Z" fill="white" style="fill:white;fill-opacity:1;"/>
</svg>
